<svg width="44" height="48" viewBox="0 0 44 48" fill="none" xmlns="http://www.w3.org/2000/svg">
<path d="M13.5809 3.67464C16.2501 2.56911 19.111 2 22 2V13C20.5554 13 19.125 13.2845 17.7905 13.8374C16.4559 14.3901 15.2432 15.2004 14.2218 16.2218C13.2004 17.2432 12.3901 18.4559 11.8374 19.7905C11.2845 21.125 11 22.5554 11 24H0C0 21.111 0.569108 18.2501 1.67464 15.5809C2.7803 12.9117 4.40075 10.4866 6.44361 8.44361C8.4866 6.40075 10.9117 4.7803 13.5809 3.67464Z" fill="#155EEF"/>
<path d="M0 24C0 26.889 0.569108 29.7499 1.67464 32.4191C2.7803 35.0883 4.40075 37.5134 6.44361 39.5564C8.48659 41.5992 10.9117 43.2197 13.5809 44.3254C16.2501 45.4309 19.111 46 22 46C24.889 46 27.7499 45.4309 30.4191 44.3254C33.0883 43.2197 35.5134 41.5992 37.5564 39.5564C39.5992 37.5134 41.2197 35.0883 42.3254 32.4191C43.4309 29.7499 44 26.889 44 24H33C33 25.4446 32.7155 26.875 32.1626 28.2095C31.6099 29.5441 30.7996 30.7568 29.7782 31.7782C28.7568 32.7996 27.5441 33.6099 26.2095 34.1626C24.875 34.7155 23.4446 35 22 35C20.5554 35 19.125 34.7155 17.7905 34.1626C16.4559 33.6099 15.2432 32.7996 14.2218 31.7782C13.2004 30.7568 12.3901 29.5441 11.8374 28.2095C11.2845 26.875 11 25.4446 11 24H0Z" fill="#84ADFF"/>
<path d="M22 17C18.134 17 15 20.134 15 24H29C29 20.134 25.866 17 22 17Z" fill="#84ADFF"/>
<path d="M22 31C18.134 31 15 27.866 15 24H29C29 27.866 25.866 31 22 31Z" fill="#155EEF"/>
</svg>